<svg xmlns="http://www.w3.org/2000/svg" xmlns:xlink="http://www.w3.org/1999/xlink" width="120" height="60" version="1.1" viewBox="0 0 120 60"><title>starred_apps</title><desc>Created with Sketch.</desc><g id="Octicons" fill="none" fill-rule="evenodd" stroke="none" stroke-width="1"><g id="Icons" transform="translate(8.000000, -434.000000)"><g id="Starred" transform="translate(13.000000, 434.000000)"><path id="Star" stroke="#3B8594" stroke-width="3" d="M40.3847069,49.3604304 C39.8960958,49.1035523 39.106374,49.102252 38.6152895,49.3604304 L26.7406979,55.6032726 C26.2520868,55.8601506 25.9311647,55.6300845 26.0249535,55.0832538 L28.2927987,41.8607019 C28.3861151,41.3166254 28.1433144,40.5651535 27.7460187,40.1778859 L18.1392723,30.8136226 C17.7439776,30.4283054 17.8636132,30.0519961 18.4126623,29.9722146 L31.6888593,28.0430702 C32.2351431,27.9636905 32.8748058,27.5005557 33.1203481,27.0030327 L39.0576438,14.9727575 C39.3019494,14.4777404 39.6968103,14.4752346 39.9423525,14.9727575 L45.8796483,27.0030327 C46.1239539,27.4980499 46.7620879,27.9632887 47.3111371,28.0430702 L60.587334,29.9722146 C61.1336179,30.0515942 61.2580197,30.426355 60.860724,30.8136226 L51.2539777,40.1778859 C50.858683,40.563203 50.6134088,41.3138712 50.7071976,41.8607019 L52.9750428,55.0832538 C53.0683592,55.6273303 52.7503829,55.861451 52.2592984,55.6032726 L40.3847069,49.3604304 Z"/><polygon id="Star" fill="#A0D0DB" points="68.304 15.699 62.433 18.786 63.554 12.248 58.804 7.618 65.369 6.664 68.304 .716 71.24 6.664 77.804 7.618 73.054 12.248 74.176 18.786"/><polygon id="Star" fill="#A0D0DB" points="17.5 18.829 12.865 21.266 13.75 16.104 10 12.449 15.182 11.696 17.5 7 19.818 11.696 25 12.449 21.25 16.104 22.135 21.266"/><polygon id="Star" fill="#A0D0DB" points="5.5 48.675 2.101 50.462 2.75 46.677 0 43.996 3.8 43.444 5.5 40 7.2 43.444 11 43.996 8.25 46.677 8.899 50.462"/></g></g></g></svg>